# xmcd
#
# Track frame offsets: 
#        150
#        28150
#        47362
#        71442
#        90407
#        108635
#        132260
#        157985
#
# Disc length: 2533 seconds
#
# Revision: 2
# Processed by: cddbd v1.5.2PL0 Copyright (c) Steve Scherf et al.
# Submitted via: ExactAudioCopy v0.99pb4
#
DISCID=5e09e308
DTITLE=Firehouse Five Plus Two - At Disneyland
DYEAR=1962
DGENRE=Jazz
TTITLE0=Anvil Stomp
TTITLE1=Muskrat Ramble
TTITLE2=You've Got To See Mamma Ev'ry Night Or You Can't See Mamma At 
TTITLE2=All
TTITLE3=Lassus Trombone
TTITLE4=Coney Island Washboard
TTITLE5=Ja-da
TTITLE6=Baby Won't You Please Come Home
TTITLE7=Tiger Rag
EXTD=YEAR: 1962
EXTT0=
EXTT1=
EXTT2=
EXTT3=
EXTT4=
EXTT5=
EXTT6=
EXTT7=
PLAYORDER=
